<svg xmlns="http://www.w3.org/2000/svg" width="43" height="43" viewBox="0 0 43 43"><g><g><path fill="#fff" d="M5.5 0a5.5 5.5 0 1 1 0 11 5.5 5.5 0 0 1 0-11z"/></g><g><path fill="#fff" d="M21.5 0a5.5 5.5 0 1 1 0 11 5.5 5.5 0 0 1 0-11z"/></g><g><path fill="#fff" d="M37.5 0a5.5 5.5 0 1 1 0 11 5.5 5.5 0 0 1 0-11z"/></g><g><path fill="#fff" d="M5.5 16a5.5 5.5 0 1 1 0 11 5.5 5.5 0 0 1 0-11z"/></g><g opacity=".5"><path fill="#fff" d="M21.5 16a5.5 5.5 0 1 1 0 11 5.5 5.5 0 0 1 0-11z"/></g><g opacity=".5"><path fill="#fff" d="M37.5 16a5.5 5.5 0 1 1 0 11 5.5 5.5 0 0 1 0-11z"/></g><g opacity=".5"><path fill="#fff" d="M5.5 32a5.5 5.5 0 1 1 0 11 5.5 5.5 0 0 1 0-11z"/></g><g opacity=".5"><path fill="#fff" d="M21.5 32a5.5 5.5 0 1 1 0 11 5.5 5.5 0 0 1 0-11z"/></g></g></svg>