<svg xmlns="http://www.w3.org/2000/svg" width="24" height="24" viewBox="0 0 24 24"><g><g><path fill="#008cff" d="M11.416 20.425v-7.3H4.058c-.027 0-.055-.001-.082-.003l1.649 1.714a.81.81 0 0 1-.042 1.177.894.894 0 0 1-1.227-.04l-3.363-3.49a.809.809 0 0 1 0-1.136l3.363-3.489a.893.893 0 0 1 1.227-.04.812.812 0 0 1 .042 1.177l-1.889 1.962c.048-.006.098-.009.15-.009h7.53V3.234l-1.954 1.88a.812.812 0 0 1-1.177-.042.893.893 0 0 1 .04-1.226l3.49-3.364a.809.809 0 0 1 1.136 0l.051.05c.16.09.296.222.397.382l3.041 2.932a.894.894 0 0 1 .04 1.226.81.81 0 0 1-1.177.042l-1.71-1.646v7.48h7.484l-1.88-1.953a.811.811 0 0 1 .042-1.177.893.893 0 0 1 1.227.04l3.363 3.489a.809.809 0 0 1 0 1.137l-.05.05c-.09.16-.221.296-.382.397l-2.931 3.041a.894.894 0 0 1-1.227.04.81.81 0 0 1-.042-1.176l1.647-1.711h-7.252v7.128c0 .028 0 .055-.002.083l1.713-1.65a.81.81 0 0 1 1.177.043c.314.35.296.899-.04 1.226l-3.489 3.363a.809.809 0 0 1-1.136 0l-3.49-3.363a.893.893 0 0 1-.04-1.226.812.812 0 0 1 1.177-.042l1.963 1.888a1.246 1.246 0 0 1-.01-.15zm.967 1.072l.053-.051a1.39 1.39 0 0 1-.117-.01zm-9.569-9.582l.052.054c.002-.04.005-.08.01-.118z"/></g></g></svg>