<svg xmlns="http://www.w3.org/2000/svg" width="28" height="22" viewBox="0 0 28 22"><g><g><path fill="#b533eb" d="M27.807 11.538c-.25.315-6.213 7.703-13.818 7.703a13.883 13.883 0 0 1-5.986-1.465L3.689 21.72a1.067 1.067 0 0 1-1.44 0 .862.862 0 0 1 .025-1.295l3.949-3.613A25.728 25.728 0 0 1 .17 11.538a.854.854 0 0 1 0-1.077c.25-.315 6.213-7.702 13.818-7.702 2.096.037 4.15.54 5.986 1.465L24.289.28a1.067 1.067 0 0 1 1.44 0 .862.862 0 0 1-.025 1.295l-3.949 3.613a25.728 25.728 0 0 1 6.052 5.274.853.853 0 0 1 0 1.076zM9.82 13.524a4.25 4.25 0 0 1 0-5.057c1.526-2.103 4.626-2.676 6.925-1.28l1.737-1.59a11.395 11.395 0 0 0-4.492-1.007C8.505 4.59 3.729 9.367 2.255 11a24.295 24.295 0 0 0 5.423 4.483zm2.884-.052c.4.18.84.273 1.286.275 1.658 0 3.002-1.23 3.002-2.747a2.514 2.514 0 0 0-.3-1.177zm2.572-4.944a3.18 3.18 0 0 0-1.286-.275c-1.658 0-3.002 1.23-3.002 2.747.002.408.104.81.3 1.177zM25.723 11A24.299 24.299 0 0 0 20.3 6.517l-2.141 1.96a4.25 4.25 0 0 1 0 5.056c-1.526 2.103-4.626 2.676-6.925 1.28l-1.737 1.59c1.398.634 2.932.978 4.492 1.007 5.484 0 10.26-4.777 11.734-6.41z"/></g></g></svg>