<svg xmlns="http://www.w3.org/2000/svg" width="20" height="21" viewBox="0 0 20 21"><defs><clipPath id="f5mxa"><path fill="#fff" d="M2.634 17.545c-.38.853-1.022 1.914-2.053 2.444-.336.177-.262.707.11.769 1.125.184 2.74-.023 4.244-1.222l.023.015c3.82 2.375 8.825 1.83 12.112-1.622 3.901-4.105 3.901-10.755 0-14.852-3.901-4.105-10.213-4.105-14.114 0C-.8 7.028-.938 13.332 2.532 17.46z"/></clipPath></defs><g><g><path fill="#008cff" d="M2.634 17.545c-.38.853-1.022 1.914-2.053 2.444-.336.177-.262.707.11.769 1.125.184 2.74-.023 4.244-1.222l.023.015c3.82 2.375 8.825 1.83 12.112-1.622 3.901-4.105 3.901-10.755 0-14.852-3.901-4.105-10.213-4.105-14.114 0C-.8 7.028-.938 13.332 2.532 17.46z"/><path fill="none" stroke="#008cff" stroke-linecap="round" stroke-linejoin="round" stroke-miterlimit="20" stroke-width="2" d="M2.634 17.545c-.38.853-1.022 1.914-2.053 2.444-.336.177-.262.707.11.769 1.125.184 2.74-.023 4.244-1.222l.023.015c3.82 2.375 8.825 1.83 12.112-1.622 3.901-4.105 3.901-10.755 0-14.852-3.901-4.105-10.213-4.105-14.114 0C-.8 7.028-.938 13.332 2.532 17.46z" clip-path="url(&quot;#f5mxa&quot;)"/></g><g><path fill="#008cff" d="M10.43 4.015c-.9 0-1.63.753-1.637 1.714-.007.953.723 1.73 1.63 1.737.876.008 1.606-.769 1.614-1.714.007-.961-.71-1.73-1.608-1.737zM7.265 8.612c-.014.169.073.346.293.422.168.07.35.085.533.108.424.062.555.223.555.67 0 .068 0 .137-.015.207-.175 1.068-.358 2.137-.533 3.205-.102.608-.19 1.23-.27 1.845-.117.907.708 1.753 1.359 1.853.387.061.789.077 1.183.069.847-.008 1.556-.384 2.148-1.015a.971.971 0 0 0 .227-.407c.058-.254-.14-.43-.373-.33-.161.068-.3.184-.46.245-.198.077-.402.154-.607.177-.248.03-.43-.115-.49-.369a1.813 1.813 0 0 1-.05-.592c.05-.407.124-.807.197-1.215.212-1.222.43-2.444.635-3.666.059-.33.11-.67.103-1-.008-.4-.234-.592-.614-.592H8.004c-.124 0-.248.008-.372.031-.234.046-.344.17-.366.354z"/></g></g></svg>