<svg xmlns="http://www.w3.org/2000/svg" width="30" height="28" viewBox="0 0 30 28"><g><g><path fill="#008cff" d="M6.546 12.094c.3.183.924.398 1.408.398.494 0 .699-.172.699-.44 0-.27-.162-.399-.774-.603-1.086-.366-1.505-.956-1.495-1.58 0-.978.839-1.719 2.14-1.719.612 0 1.161.14 1.483.3l-.29 1.13a2.576 2.576 0 0 0-1.14-.302c-.397 0-.623.161-.623.43 0 .247.204.376.85.602.999.343 1.418.85 1.429 1.623 0 .977-.774 1.697-2.28 1.697-.687 0-1.3-.15-1.697-.365zm4.675-2.15c0-.655-.021-1.214-.043-1.676h1.376l.075.71h.032c.226-.334.688-.828 1.591-.828.678 0 1.215.344 1.44.891h.022c.194-.268.43-.483.677-.633.291-.172.614-.258 1-.258 1.011 0 1.775.71 1.775 2.278v3.095h-1.591v-2.858c0-.764-.248-1.204-.775-1.204-.376 0-.645.257-.752.57a1.37 1.37 0 0 0-.064.419v3.073h-1.591v-2.945c0-.666-.237-1.117-.754-1.117-.418 0-.666.323-.763.591-.053.129-.064.28-.064.409v3.062h-1.59zm9.233 2.15c.3.183.924.398 1.408.398.494 0 .698-.172.698-.44 0-.27-.161-.399-.773-.603-1.086-.366-1.506-.956-1.495-1.58 0-.978.839-1.719 2.14-1.719.612 0 1.16.14 1.483.3l-.29 1.13a2.576 2.576 0 0 0-1.14-.302c-.397 0-.623.161-.623.43 0 .247.204.376.85.602.999.343 1.418.85 1.429 1.623 0 .977-.774 1.697-2.28 1.697-.687 0-1.3-.15-1.697-.365zm-6.228 8.355H3.489C1.98 20.45.75 19.2.75 17.663V3.537C.75 2 1.978.75 3.49.75h23.02c1.512 0 2.74 1.25 2.74 2.787v14.126c0 1.537-1.228 2.786-2.74 2.786h-2.993v6.801zM3.489 2.406c-.597 0-1.083.507-1.083 1.13v14.127c0 .623.486 1.13 1.083 1.13h11.329l7.043 4.956v-4.955h4.65c.597 0 1.083-.508 1.083-1.131V3.537c0-.624-.486-1.131-1.083-1.131z"/></g></g></svg>